<svg width="21" height="25" viewBox="0 0 21 25" fill="none" xmlns="http://www.w3.org/2000/svg">
<path fill-rule="evenodd" clip-rule="evenodd" d="M10.25 0L10.7331 0.406823L20.2331 8.40682L20.5 8.63158V8.98051V19.9805C20.5 22.5947 18.3642 24.7305 15.75 24.7305H4.75C2.13579 24.7305 0 22.5947 0 19.9805V8.98051V8.63158L0.266898 8.40682L9.7669 0.406823L10.25 0ZM1.5 19.9805C1.5 21.7663 2.96421 23.2305 4.75 23.2305H7V16.9805V16.2305H7.75H12.75H13.5V16.9805V23.2305H15.75C17.5358 23.2305 19 21.7663 19 19.9805V9.32943L10.25 1.96101L1.5 9.32943V19.9805ZM12 23.2305V17.7305H8.5V23.2305H12Z" fill="#A2A2AE"/>
</svg>
