<svg width="23" height="20" viewBox="0 0 23 20" fill="none" xmlns="http://www.w3.org/2000/svg">
    <path fill-rule="evenodd" clip-rule="evenodd" d="M1.5 0.75C1.5 0.335786 1.16421 0 0.75 0C0.335786 0 0 0.335786 0 0.75V16.75C0 18.2688 1.23122 19.5 2.75 19.5H21.75C22.1642 19.5 22.5 19.1642 22.5 18.75C22.5 18.3358 22.1642 18 21.75 18H2.75C2.05964 18 1.5 17.4404 1.5 16.75V0.75ZM18 2.75C18 2.33579 17.6642 2 17.25 2C16.8358 2 16.5 2.33579 16.5 2.75V14.75C16.5 15.1642 16.8358 15.5 17.25 15.5C17.6642 15.5 18 15.1642 18 14.75V2.75ZM8.75 4C9.16421 4 9.5 4.33579 9.5 4.75V14.75C9.5 15.1642 9.16421 15.5 8.75 15.5C8.33579 15.5 8 15.1642 8 14.75V4.75C8 4.33579 8.33579 4 8.75 4ZM13.25 7C13.6642 7 14 7.33579 14 7.75V14.75C14 15.1642 13.6642 15.5 13.25 15.5C12.8358 15.5 12.5 15.1642 12.5 14.75V7.75C12.5 7.33579 12.8358 7 13.25 7ZM5.25 11C5.66421 11 6 11.3358 6 11.75V14.75C6 15.1642 5.66421 15.5 5.25 15.5C4.83579 15.5 4.5 15.1642 4.5 14.75V11.75C4.5 11.3358 4.83579 11 5.25 11Z" fill="#FFB802"/>
</svg>
